<svg width="60" height="60" viewBox="0 0 60 60" fill="none" xmlns="http://www.w3.org/2000/svg">
<path d="M30 5C16.25 5 5 16.25 5 30C5 43.75 16.25 55 30 55C43.75 55 55 43.75 55 30C55 16.25 43.75 5 30 5ZM39.25 35.75C40.25 36.75 40.25 38.25 39.25 39.25C38.25 40.25 36.75 40.25 35.75 39.25L30 33.5L24.25 39.25C23.25 40.25 21.75 40.25 20.75 39.25C19.75 38.25 19.75 36.75 20.75 35.75L26.5 30L20.75 24.25C19.75 23.25 19.75 21.75 20.75 20.75C21.75 19.75 23.25 19.75 24.25 20.75L30 26.5L35.75 20.75C36.75 19.75 38.25 19.75 39.25 20.75C40.25 21.75 40.25 23.25 39.25 24.25L33.5 30L39.25 35.75Z" fill="#269CDD"/>
</svg>
