<svg width="24" height="24" viewBox="0 0 24 24" fill="none" xmlns="http://www.w3.org/2000/svg">
<circle cx="12" cy="12" r="11.5" fill="white" stroke="#269CDD"/>
<path d="M17.192 13.1538C17.039 13.1538 16.8923 13.2146 16.7841 13.3228C16.6759 13.431 16.6151 13.5777 16.6151 13.7307V16.0384C16.6151 16.1914 16.5543 16.3382 16.4461 16.4464C16.3379 16.5545 16.1912 16.6153 16.0382 16.6153H7.96124C7.80823 16.6153 7.66149 16.5545 7.55329 16.4464C7.4451 16.3382 7.38431 16.1914 7.38431 16.0384V13.7307C7.38431 13.5777 7.32353 13.431 7.21534 13.3228C7.10714 13.2146 6.9604 13.1538 6.80739 13.1538C6.65438 13.1538 6.50764 13.2146 6.39945 13.3228C6.29125 13.431 6.23047 13.5777 6.23047 13.7307V16.0384C6.23047 16.4974 6.41282 16.9377 6.7374 17.2622C7.06198 17.5868 7.50221 17.7692 7.96124 17.7692H16.0382C16.4972 17.7692 16.9374 17.5868 17.262 17.2622C17.5866 16.9377 17.7689 16.4974 17.7689 16.0384V13.7307C17.7689 13.5777 17.7081 13.431 17.6 13.3228C17.4918 13.2146 17.345 13.1538 17.192 13.1538ZM11.5901 14.1403C11.645 14.1929 11.7097 14.234 11.7805 14.2615C11.8495 14.292 11.9242 14.3078 11.9997 14.3078C12.0752 14.3078 12.1499 14.292 12.2189 14.2615C12.2897 14.234 12.3544 14.1929 12.4093 14.1403L14.717 11.8326C14.8256 11.724 14.8867 11.5767 14.8867 11.423C14.8867 11.2694 14.8256 11.122 14.717 11.0134C14.6084 10.9048 14.461 10.8437 14.3074 10.8437C14.1538 10.8437 14.0064 10.9048 13.8978 11.0134L12.5766 12.3403V6.80764C12.5766 6.65463 12.5158 6.50788 12.4076 6.39969C12.2995 6.2915 12.1527 6.23071 11.9997 6.23071C11.8467 6.23071 11.6999 6.2915 11.5918 6.39969C11.4836 6.50788 11.4228 6.65463 11.4228 6.80764V12.3403L10.1016 11.0134C10.0478 10.9596 9.98397 10.9169 9.91369 10.8878C9.84341 10.8587 9.76808 10.8437 9.69201 10.8437C9.61593 10.8437 9.54061 10.8587 9.47032 10.8878C9.40004 10.9169 9.33618 10.9596 9.28239 11.0134C9.2286 11.0672 9.18593 11.1311 9.15682 11.2013C9.12771 11.2716 9.11272 11.3469 9.11272 11.423C9.11272 11.4991 9.12771 11.5744 9.15682 11.6447C9.18593 11.715 9.2286 11.7788 9.28239 11.8326L11.5901 14.1403Z" fill="#269CDD"/>
</svg>
