<svg width="24" height="24" viewBox="0 0 24 24" fill="none" xmlns="http://www.w3.org/2000/svg">
<circle cx="12" cy="12" r="12" fill="white"/>
<path d="M17.4 13.2C17.2409 13.2 17.0883 13.2632 16.9757 13.3757C16.8632 13.4883 16.8 13.6409 16.8 13.8V16.2C16.8 16.3591 16.7368 16.5117 16.6243 16.6243C16.5117 16.7368 16.3591 16.8 16.2 16.8H7.8C7.64087 16.8 7.48826 16.7368 7.37574 16.6243C7.26321 16.5117 7.2 16.3591 7.2 16.2V13.8C7.2 13.6409 7.13679 13.4883 7.02426 13.3757C6.91174 13.2632 6.75913 13.2 6.6 13.2C6.44087 13.2 6.28826 13.2632 6.17574 13.3757C6.06321 13.4883 6 13.6409 6 13.8V16.2C6 16.6774 6.18964 17.1352 6.52721 17.4728C6.86477 17.8104 7.32261 18 7.8 18H16.2C16.6774 18 17.1352 17.8104 17.4728 17.4728C17.8104 17.1352 18 16.6774 18 16.2V13.8C18 13.6409 17.9368 13.4883 17.8243 13.3757C17.7117 13.2632 17.5591 13.2 17.4 13.2ZM11.574 14.226C11.6311 14.2806 11.6983 14.3234 11.772 14.352C11.8438 14.3837 11.9215 14.4001 12 14.4001C12.0785 14.4001 12.1562 14.3837 12.228 14.352C12.3017 14.3234 12.3689 14.2806 12.426 14.226L14.826 11.826C14.939 11.713 15.0025 11.5598 15.0025 11.4C15.0025 11.2402 14.939 11.087 14.826 10.974C14.713 10.861 14.5598 10.7975 14.4 10.7975C14.2402 10.7975 14.087 10.861 13.974 10.974L12.6 12.354V6.6C12.6 6.44087 12.5368 6.28826 12.4243 6.17574C12.3117 6.06321 12.1591 6 12 6C11.8409 6 11.6883 6.06321 11.5757 6.17574C11.4632 6.28826 11.4 6.44087 11.4 6.6V12.354L10.026 10.974C9.97006 10.9181 9.90364 10.8737 9.83055 10.8434C9.75746 10.8131 9.67912 10.7975 9.6 10.7975C9.52088 10.7975 9.44254 10.8131 9.36945 10.8434C9.29636 10.8737 9.22994 10.9181 9.174 10.974C9.11806 11.0299 9.07368 11.0964 9.0434 11.1695C9.01313 11.2425 8.99755 11.3209 8.99755 11.4C8.99755 11.4791 9.01313 11.5575 9.0434 11.6305C9.07368 11.7036 9.11806 11.7701 9.174 11.826L11.574 14.226Z" fill="#269CDD"/>
</svg>
