<svg width="44" height="44" viewBox="0 0 44 44" fill="none" xmlns="http://www.w3.org/2000/svg">
<g clip-path="url(#clip0_311_418)">
<path d="M36.5037 21.9022C36.5037 13.8381 29.9663 7.30078 21.9022 7.30078C13.8381 7.30078 7.30078 13.838 7.30078 21.9022C7.30078 29.1902 12.6403 35.2309 19.6207 36.3263V26.1229H15.9133V21.9022H19.6207V18.6853C19.6207 15.0259 21.8007 13.0045 25.1359 13.0045C26.7335 13.0045 28.4044 13.2897 28.4044 13.2897V16.883H26.5633C24.7493 16.883 24.1837 18.0085 24.1837 19.1633V21.9022H28.2333L27.5859 26.1229H24.1837V36.3263C31.1641 35.2309 36.5037 29.1903 36.5037 21.9022Z" fill="#1877F2"/>
<path d="M27.5857 26.1229L28.233 21.9021H24.1834V19.1632C24.1834 18.0084 24.7491 16.8829 26.563 16.8829H28.4042V13.2896C28.4042 13.2896 26.7332 13.0044 25.1356 13.0044C21.8004 13.0044 19.6205 15.0258 19.6205 18.6853V21.9021H15.9131V26.1229H19.6205V36.3262C20.3752 36.4445 21.138 36.5038 21.902 36.5036C22.6659 36.5038 23.4287 36.4445 24.1834 36.3262V26.1229H27.5857Z" fill="white"/>
</g>
<circle cx="21.9022" cy="21.9022" r="21.4022" stroke="#269CDD"/>
<defs>
<clipPath id="clip0_311_418">
<rect width="29.2029" height="29.2029" fill="white" transform="translate(7.30078 7.30078)"/>
</clipPath>
</defs>
</svg>
