<svg width="36" height="36" viewBox="0 0 36 36" fill="none" xmlns="http://www.w3.org/2000/svg">
<circle cx="18" cy="18" r="18" fill="white"/>
<path d="M25.8437 10.1146C24.8887 9.1499 23.7512 8.38505 22.4975 7.86462C21.2438 7.34418 19.899 7.07859 18.5416 7.08331C12.8541 7.08331 8.21871 11.7187 8.21871 17.4062C8.21871 19.2291 8.69788 21 9.59371 22.5625L8.13538 27.9166L13.6041 26.4791C15.1145 27.3021 16.8125 27.7396 18.5416 27.7396C24.2291 27.7396 28.8645 23.1041 28.8645 17.4166C28.8645 14.6562 27.7916 12.0625 25.8437 10.1146ZM18.5416 25.9896C17 25.9896 15.4895 25.5729 14.1666 24.7916L13.8541 24.6041L10.6041 25.4583L11.4687 22.2916L11.2604 21.9687C10.4039 20.601 9.94906 19.02 9.94788 17.4062C9.94788 12.6771 13.802 8.8229 18.5312 8.8229C20.8229 8.8229 22.9791 9.71873 24.5937 11.3437C25.3932 12.1395 26.0267 13.0861 26.4577 14.1285C26.8886 15.171 27.1083 16.2886 27.1041 17.4166C27.125 22.1458 23.2708 25.9896 18.5416 25.9896ZM23.25 19.5729C22.9895 19.4479 21.7187 18.8229 21.4895 18.7291C21.25 18.6458 21.0833 18.6041 20.9062 18.8541C20.7291 19.1146 20.2395 19.6979 20.0937 19.8646C19.9479 20.0416 19.7916 20.0625 19.5312 19.9271C19.2708 19.8021 18.4375 19.5208 17.4583 18.6458C16.6875 17.9583 16.177 17.1146 16.0208 16.8541C15.875 16.5937 16 16.4583 16.1354 16.3229C16.25 16.2083 16.3958 16.0208 16.5208 15.875C16.6458 15.7291 16.6979 15.6146 16.7812 15.4479C16.8645 15.2708 16.8229 15.125 16.7604 15C16.6979 14.875 16.177 13.6041 15.9687 13.0833C15.7604 12.5833 15.5416 12.6458 15.3854 12.6354H14.8854C14.7083 12.6354 14.4375 12.6979 14.1979 12.9583C13.9687 13.2187 13.302 13.8437 13.302 15.1146C13.302 16.3854 14.2291 17.6146 14.3541 17.7812C14.4791 17.9583 16.177 20.5625 18.7604 21.6771C19.375 21.9479 19.8541 22.1041 20.2291 22.2187C20.8437 22.4166 21.4062 22.3854 21.8541 22.3229C22.3541 22.25 23.3854 21.6979 23.5937 21.0937C23.8125 20.4896 23.8125 19.9791 23.7395 19.8646C23.6666 19.75 23.5104 19.6979 23.25 19.5729Z" fill="#269CDD"/>
</svg>
