<svg width="36" height="36" viewBox="0 0 36 36" fill="none" xmlns="http://www.w3.org/2000/svg">
<circle cx="18" cy="18" r="18" fill="white"/>
<path fill-rule="evenodd" clip-rule="evenodd" d="M17.9688 7.34375C12.1005 7.34375 7.34375 12.1005 7.34375 17.9688C7.34375 23.837 12.1005 28.5938 17.9688 28.5938C23.837 28.5938 28.5938 23.837 28.5938 17.9688C28.5938 12.1005 23.837 7.34375 17.9688 7.34375ZM8.97837 17.9688C8.97897 16.0746 9.5778 14.229 10.6894 12.6954C11.801 11.1617 13.3686 10.0184 15.1686 9.42841C16.9685 8.83845 18.9088 8.83206 20.7125 9.41014C22.5163 9.98821 24.0914 11.1212 25.2131 12.6475C26.3348 14.1738 26.9458 16.0154 26.9589 17.9095C26.972 19.8036 26.3865 21.6534 25.286 23.1951C24.1855 24.7367 22.6262 25.8914 20.8306 26.4943C19.035 27.0973 17.0948 27.1177 15.2869 26.5527C15.7474 25.8293 16.1137 25.0499 16.3766 24.2337L16.9389 22.0793C17.1715 22.4112 17.4833 22.6798 17.846 22.8606C18.2088 23.0414 18.6109 23.1287 19.016 23.1145C21.7785 23.1145 23.7204 20.6038 23.7204 17.4849C23.7204 14.4892 21.2739 12.2509 18.1366 12.2509C14.2277 12.2509 12.1517 14.8771 12.1517 17.7312C12.1517 19.0639 12.8568 20.7138 13.989 21.2445C14.1568 21.3219 14.2669 21.2445 14.293 21.1214C14.3192 20.9982 14.4739 20.3782 14.5448 20.0927C14.5557 20.0476 14.5556 20.0006 14.5444 19.9556C14.5332 19.9106 14.5113 19.869 14.4805 19.8344C14.0526 19.2318 13.8261 18.5094 13.8332 17.7704C13.8309 17.2399 13.9363 16.7144 14.1431 16.2258C14.3498 15.7372 14.6535 15.2957 15.0359 14.9279C15.4183 14.5601 15.8713 14.2737 16.3675 14.0861C16.8638 13.8985 17.3929 13.8136 17.923 13.8364C18.4193 13.8074 18.9163 13.8821 19.3821 14.0559C19.848 14.2296 20.2725 14.4986 20.6286 14.8456C20.9847 15.1926 21.2646 15.61 21.4504 16.0712C21.6362 16.5323 21.7238 17.0272 21.7077 17.5241C21.7077 19.9695 20.4654 21.6717 18.8613 21.6717C18.654 21.6875 18.446 21.6531 18.2549 21.5716C18.0637 21.49 17.895 21.3636 17.763 21.203C17.631 21.0425 17.5396 20.8525 17.4965 20.6492C17.4534 20.4459 17.4599 20.2352 17.5154 20.0349C17.607 19.6535 17.729 19.2601 17.8467 18.8765C18.0614 18.1813 18.2662 17.5198 18.2662 17.0196C18.2885 16.857 18.2755 16.6915 18.2279 16.5344C18.1803 16.3773 18.0994 16.2324 17.9907 16.1094C17.8819 15.9865 17.7479 15.8885 17.5978 15.8222C17.4477 15.7558 17.285 15.7227 17.1209 15.725C16.2143 15.725 15.483 16.6698 15.483 17.9252C15.4765 18.3687 15.5593 18.8089 15.7293 19.2198L14.6614 23.7488C14.5308 24.6047 14.5308 25.4755 14.6614 26.3314C13.9576 26.0525 13.2919 25.6856 12.6802 25.2395C11.1787 24.1429 10.051 22.6108 9.45022 20.8511C9.13669 19.9225 8.97729 18.9489 8.97837 17.9688Z" fill="#269CDD"/>
</svg>
