<svg width="44" height="44" viewBox="0 0 44 44" fill="none" xmlns="http://www.w3.org/2000/svg">
<g filter="url(#filter0_d_86_93)">
<circle cx="22" cy="18" r="18" fill="white"/>
<g filter="url(#filter1_d_86_93)">
<path d="M21.1412 11.252C20.9964 10.858 20.7064 10.5343 20.3306 10.3473C19.9548 10.1603 19.5217 10.1242 19.1201 10.2463C17.2164 10.8333 15.886 12.467 16.1716 14.357C16.4911 16.4547 17.2019 18.4736 18.267 20.3087C19.3208 22.1396 20.7023 23.7612 22.3425 25.0924C23.8177 26.2859 25.8877 25.9572 27.3473 24.5876C27.6543 24.2995 27.8406 23.9056 27.8685 23.4855C27.8965 23.0653 27.764 22.6503 27.4979 22.324L26.4531 21.0463C26.2439 20.7894 25.9622 20.6013 25.6448 20.5064C25.3273 20.4115 24.9886 20.4142 24.6727 20.5142L22.2623 21.2772L21.8416 20.8429C21.3116 20.2932 20.848 19.6831 20.4603 19.0253C20.084 18.36 19.791 17.651 19.5877 16.9142L19.4253 16.337L21.284 14.625C21.5293 14.3973 21.7013 14.1018 21.7783 13.7761C21.8553 13.4504 21.8337 13.1091 21.7164 12.7957L21.1431 11.254L21.1412 11.252ZM18.5449 8.37591C19.4236 8.10704 20.372 8.18442 21.1955 8.5922C22.0191 8.99998 22.6555 9.70728 22.9744 10.5692L23.5477 12.1109C23.8006 12.7882 23.8463 13.5255 23.6791 14.2289C23.5119 14.9323 23.1392 15.5701 22.6086 16.0611L21.6499 16.9435C21.7731 17.284 21.9394 17.6733 22.1547 18.0509C22.3699 18.4226 22.6203 18.7611 22.8492 19.037L24.0818 18.6457C24.7709 18.4281 25.5095 18.4224 26.2019 18.6292C26.8943 18.8361 27.5087 19.246 27.9655 19.8059L29.0103 21.0835C29.5909 21.7936 29.8804 22.6975 29.8201 23.6128C29.7598 24.528 29.3543 25.3862 28.6855 26.014C26.7407 27.8394 23.5653 28.5966 21.1138 26.6126C19.2871 25.1307 17.7484 23.3255 16.5747 21.287C15.3864 19.2402 14.5933 16.9883 14.2366 14.6485C13.767 11.5318 16.0033 9.15852 18.5449 8.37787V8.37591Z" fill="#269CDD"/>
</g>
</g>
<defs>
<filter id="filter0_d_86_93" x="0" y="0" width="44" height="44" filterUnits="userSpaceOnUse" color-interpolation-filters="sRGB">
<feFlood flood-opacity="0" result="BackgroundImageFix"/>
<feColorMatrix in="SourceAlpha" type="matrix" values="0 0 0 0 0 0 0 0 0 0 0 0 0 0 0 0 0 0 127 0" result="hardAlpha"/>
<feOffset dy="4"/>
<feGaussianBlur stdDeviation="2"/>
<feComposite in2="hardAlpha" operator="out"/>
<feColorMatrix type="matrix" values="0 0 0 0 0 0 0 0 0 0 0 0 0 0 0 0 0 0 0.25 0"/>
<feBlend mode="normal" in2="BackgroundImageFix" result="effect1_dropShadow_86_93"/>
<feBlend mode="normal" in="SourceGraphic" in2="effect1_dropShadow_86_93" result="shape"/>
</filter>
<filter id="filter1_d_86_93" x="6.26099" y="6.26086" width="31.4783" height="31.4783" filterUnits="userSpaceOnUse" color-interpolation-filters="sRGB">
<feFlood flood-opacity="0" result="BackgroundImageFix"/>
<feColorMatrix in="SourceAlpha" type="matrix" values="0 0 0 0 0 0 0 0 0 0 0 0 0 0 0 0 0 0 127 0" result="hardAlpha"/>
<feOffset dy="4"/>
<feGaussianBlur stdDeviation="2"/>
<feComposite in2="hardAlpha" operator="out"/>
<feColorMatrix type="matrix" values="0 0 0 0 0 0 0 0 0 0 0 0 0 0 0 0 0 0 0.25 0"/>
<feBlend mode="normal" in2="BackgroundImageFix" result="effect1_dropShadow_86_93"/>
<feBlend mode="normal" in="SourceGraphic" in2="effect1_dropShadow_86_93" result="shape"/>
</filter>
</defs>
</svg>
