<svg width="36" height="36" viewBox="0 0 36 36" fill="none" xmlns="http://www.w3.org/2000/svg">
<circle cx="18" cy="18" r="18" fill="white"/>
<path fill-rule="evenodd" clip-rule="evenodd" d="M13.7764 7.1105C14.9982 7.05425 15.3878 7.04175 18.5003 7.04175C21.6128 7.04175 22.0024 7.05529 23.2232 7.1105C24.4441 7.16571 25.2774 7.3605 26.0066 7.64279C26.7701 7.93133 27.4628 8.38237 28.0357 8.96571C28.6191 9.53758 29.0691 10.2292 29.3566 10.9938C29.6399 11.723 29.8337 12.5563 29.8899 13.7751C29.9462 14.999 29.9587 15.3886 29.9587 18.5001C29.9587 21.6126 29.9451 22.0022 29.8899 23.224C29.8347 24.4428 29.6399 25.2761 29.3566 26.0053C29.0691 26.77 28.6183 27.4628 28.0357 28.0355C27.4628 28.6188 26.7701 29.0688 26.0066 29.3563C25.2774 29.6397 24.4441 29.8334 23.2253 29.8897C22.0024 29.9459 21.6128 29.9584 18.5003 29.9584C15.3878 29.9584 14.9982 29.9449 13.7764 29.8897C12.5576 29.8345 11.7243 29.6397 10.9951 29.3563C10.2305 29.0688 9.53764 28.6181 8.96491 28.0355C8.38197 27.4633 7.93086 26.7708 7.64303 26.0063C7.36074 25.2772 7.16699 24.4438 7.11074 23.2251C7.05449 22.0011 7.04199 21.6115 7.04199 18.5001C7.04199 15.3876 7.05553 14.998 7.11074 13.7772C7.16595 12.5563 7.36074 11.723 7.64303 10.9938C7.93129 10.2293 8.38274 9.53687 8.96595 8.96466C9.53787 8.38185 10.23 7.93075 10.9941 7.64279C11.7232 7.3605 12.5566 7.16675 13.7753 7.1105H13.7764ZM23.1305 9.173C21.9222 9.11779 21.5597 9.10633 18.5003 9.10633C15.4409 9.10633 15.0784 9.11779 13.8701 9.173C12.7524 9.22404 12.1462 9.4105 11.742 9.56779C11.2076 9.77612 10.8253 10.023 10.4243 10.424C10.0441 10.7939 9.75155 11.2441 9.56803 11.7417C9.41074 12.1459 9.22428 12.7522 9.17324 13.8699C9.11803 15.0782 9.10658 15.4407 9.10658 18.5001C9.10658 21.5595 9.11803 21.922 9.17324 23.1303C9.22428 24.248 9.41074 24.8542 9.56803 25.2584C9.75137 25.7553 10.0441 26.2063 10.4243 26.5761C10.7941 26.9563 11.2451 27.249 11.742 27.4324C12.1462 27.5897 12.7524 27.7761 13.8701 27.8272C15.0784 27.8824 15.4399 27.8938 18.5003 27.8938C21.5607 27.8938 21.9222 27.8824 23.1305 27.8272C24.2482 27.7761 24.8545 27.5897 25.2587 27.4324C25.793 27.224 26.1753 26.9772 26.5764 26.5761C26.9566 26.2063 27.2493 25.7553 27.4326 25.2584C27.5899 24.8542 27.7764 24.248 27.8274 23.1303C27.8826 21.922 27.8941 21.5595 27.8941 18.5001C27.8941 15.4407 27.8826 15.0782 27.8274 13.8699C27.7764 12.7522 27.5899 12.1459 27.4326 11.7417C27.2243 11.2074 26.9774 10.8251 26.5764 10.424C26.2065 10.0439 25.7563 9.75134 25.2587 9.56779C24.8545 9.4105 24.2482 9.22404 23.1305 9.173ZM17.0368 22.0324C17.8541 22.3726 18.7643 22.4185 19.6117 22.1623C20.4592 21.906 21.1914 21.3635 21.6833 20.6274C22.1751 19.8913 22.3962 19.0072 22.3087 18.1262C22.2212 17.2452 21.8305 16.4219 21.2034 15.797C20.8037 15.3975 20.3203 15.0916 19.7882 14.9013C19.256 14.711 18.6883 14.6411 18.1258 14.6966C17.5634 14.752 17.0203 14.9315 16.5355 15.2221C16.0508 15.5127 15.6365 15.9071 15.3225 16.377C15.0085 16.8469 14.8026 17.3806 14.7196 17.9396C14.6366 18.4987 14.6786 19.0691 14.8426 19.61C15.0065 20.1509 15.2883 20.6486 15.6677 21.0675C16.0472 21.4864 16.5147 21.8159 17.0368 22.0324ZM14.3357 14.3355C14.8826 13.7886 15.5319 13.3548 16.2465 13.0588C16.961 12.7628 17.7269 12.6105 18.5003 12.6105C19.2738 12.6105 20.0396 12.7628 20.7542 13.0588C21.4687 13.3548 22.118 13.7886 22.6649 14.3355C23.2118 14.8824 23.6456 15.5317 23.9416 16.2462C24.2376 16.9608 24.3899 17.7266 24.3899 18.5001C24.3899 19.2735 24.2376 20.0394 23.9416 20.7539C23.6456 21.4685 23.2118 22.1178 22.6649 22.6647C21.5604 23.7692 20.0623 24.3897 18.5003 24.3897C16.9383 24.3897 15.4403 23.7692 14.3357 22.6647C13.2312 21.5601 12.6107 20.0621 12.6107 18.5001C12.6107 16.9381 13.2312 15.44 14.3357 14.3355ZM25.6962 13.4876C25.8317 13.3597 25.9402 13.206 26.0152 13.0355C26.0903 12.8649 26.1303 12.6811 26.133 12.4948C26.1358 12.3085 26.1011 12.1236 26.031 11.9509C25.961 11.7783 25.857 11.6214 25.7253 11.4897C25.5935 11.358 25.4367 11.254 25.2641 11.184C25.0914 11.1139 24.9065 11.0792 24.7202 11.0819C24.5339 11.0847 24.35 11.1247 24.1795 11.1998C24.009 11.2748 23.8553 11.3833 23.7274 11.5188C23.4788 11.7824 23.3426 12.1325 23.3479 12.4948C23.3532 12.8571 23.4995 13.2031 23.7557 13.4593C24.0119 13.7155 24.3579 13.8618 24.7202 13.8671C25.0825 13.8723 25.4326 13.7362 25.6962 13.4876Z" fill="#269CDD"/>
</svg>
