<svg width="36" height="36" viewBox="0 0 36 36" fill="none" xmlns="http://www.w3.org/2000/svg">
<circle cx="18" cy="18" r="18" fill="white"/>
<path d="M21.2084 17.8541L17.3802 20.3189V15.3893L21.2084 17.8541Z" fill="#269CDD" stroke="#269CDD" stroke-width="2" stroke-linecap="round" stroke-linejoin="round"/>
<path d="M8.08337 18.7254V16.9816C8.08337 13.4138 8.08337 11.6293 9.07322 10.4819C10.0642 9.33335 11.6238 9.28406 14.7421 9.18423C16.2187 9.1374 17.7281 9.10413 19.0209 9.10413C20.3126 9.10413 21.822 9.1374 23.2996 9.18423C26.4179 9.28406 27.9776 9.33335 28.9674 10.4819C29.9584 11.6293 29.9584 13.415 29.9584 16.9816V18.7254C29.9584 22.2944 29.9584 24.0777 28.9685 25.2263C27.9776 26.3737 26.419 26.4242 23.2996 26.5228C21.8231 26.5709 20.3137 26.6041 19.0209 26.6041C17.5944 26.5993 16.168 26.5722 14.7421 26.5228C11.6238 26.4242 10.0642 26.3749 9.07322 25.2263C8.08337 24.0777 8.08337 22.2932 8.08337 18.7267V18.7254Z" stroke="#269CDD" stroke-width="2"/>
</svg>
