<svg width="30" height="30" viewBox="0 0 30 30" fill="none" xmlns="http://www.w3.org/2000/svg">
<path d="M27.7296 14.7949L16.4093 3.48042L15.6505 2.72163C15.4776 2.54988 15.2438 2.45349 15.0001 2.45349C14.7564 2.45349 14.5226 2.54988 14.3497 2.72163L2.27063 14.7949C2.09347 14.9713 1.95347 15.1815 1.85887 15.413C1.76427 15.6444 1.717 15.8925 1.71985 16.1425C1.73157 17.1738 2.58997 17.997 3.62122 17.997H4.86633V27.539H25.1339V17.997H26.4054C26.9064 17.997 27.378 17.8007 27.7325 17.4462C27.9071 17.2723 28.0454 17.0654 28.1394 16.8376C28.2335 16.6097 28.2814 16.3655 28.2804 16.1191C28.2804 15.621 28.0841 15.1494 27.7296 14.7949ZM16.6407 25.4296H13.3595V19.4531H16.6407V25.4296ZM23.0245 15.8876V25.4296H18.5157V18.75C18.5157 18.1025 17.9913 17.5781 17.3439 17.5781H12.6564C12.0089 17.5781 11.4845 18.1025 11.4845 18.75V25.4296H6.97571V15.8876H4.16321L15.003 5.05659L15.6798 5.73335L25.84 15.8876H23.0245Z" fill="#269CDD"/>
</svg>
