<svg width="28" height="26" viewBox="0 0 28 26" fill="none" xmlns="http://www.w3.org/2000/svg">
<path d="M26.7296 12.7949L15.4093 1.48042L14.6505 0.721631C14.4776 0.549883 14.2438 0.453491 14.0001 0.453491C13.7564 0.453491 13.5226 0.549883 13.3497 0.721631L1.27063 12.7949C1.09347 12.9713 0.953466 13.1815 0.858868 13.413C0.76427 13.6444 0.717 13.8925 0.719848 14.1425C0.731567 15.1738 1.58997 15.997 2.62122 15.997H3.86633V25.539H24.1339V15.997H25.4054C25.9064 15.997 26.378 15.8007 26.7325 15.4462C26.9071 15.2723 27.0454 15.0654 27.1394 14.8376C27.2335 14.6097 27.2814 14.3655 27.2804 14.1191C27.2804 13.621 27.0841 13.1494 26.7296 12.7949ZM15.6407 23.4296H12.3595V17.4531H15.6407V23.4296ZM22.0245 13.8876V23.4296H17.5157V16.75C17.5157 16.1025 16.9913 15.5781 16.3439 15.5781H11.6564C11.0089 15.5781 10.4845 16.1025 10.4845 16.75V23.4296H5.97571V13.8876H3.16321L14.003 3.05659L14.6798 3.73335L24.84 13.8876H22.0245Z" fill="white"/>
</svg>
