<svg width="45" height="44" viewBox="0 0 45 44" fill="none" xmlns="http://www.w3.org/2000/svg">
<g clip-path="url(#clip0_311_429)">
<path d="M29.7136 8.34375H15.3077C11.7976 8.34375 8.95215 11.1892 8.95215 14.6993V29.1052C8.95215 32.6152 11.7976 35.4607 15.3077 35.4607H29.7136C33.2236 35.4607 36.0691 32.6152 36.0691 29.1052V14.6993C36.0691 11.1892 33.2236 8.34375 29.7136 8.34375Z" fill="url(#paint0_radial_311_429)"/>
<path d="M29.7136 8.34375H15.3077C11.7976 8.34375 8.95215 11.1892 8.95215 14.6993V29.1052C8.95215 32.6152 11.7976 35.4607 15.3077 35.4607H29.7136C33.2236 35.4607 36.0691 32.6152 36.0691 29.1052V14.6993C36.0691 11.1892 33.2236 8.34375 29.7136 8.34375Z" fill="url(#paint1_radial_311_429)"/>
<path d="M22.5115 11.3096C19.6348 11.3096 19.2737 11.3222 18.1439 11.3735C17.0162 11.4252 16.2464 11.6037 15.5729 11.8657C14.8762 12.1362 14.2852 12.4982 13.6965 13.0871C13.1072 13.6759 12.7452 14.2669 12.4739 14.9634C12.2112 15.6371 12.0325 16.4071 11.9817 17.5343C11.9312 18.6642 11.918 19.0254 11.918 21.9022C11.918 24.7791 11.9307 25.139 11.9819 26.2688C12.0339 27.3965 12.2123 28.1663 12.4741 28.8397C12.7448 29.5365 13.1068 30.1275 13.6957 30.7162C14.2843 31.3055 14.8753 31.6683 15.5716 31.9388C16.2456 32.2007 17.0154 32.3792 18.1429 32.4309C19.2728 32.4823 19.6336 32.4949 22.5102 32.4949C25.3873 32.4949 25.7472 32.4823 26.877 32.4309C28.0047 32.3792 28.7753 32.2007 29.4493 31.9388C30.1458 31.6683 30.7359 31.3055 31.3244 30.7162C31.9137 30.1275 32.2755 29.5365 32.547 28.84C32.8073 28.1663 32.9861 27.3963 33.0391 26.269C33.0898 25.1392 33.1031 24.7791 33.1031 21.9022C33.1031 19.0254 33.0898 18.6644 33.0391 17.5345C32.9861 16.4068 32.8073 15.6372 32.547 14.9637C32.2755 14.2669 31.9137 13.6759 31.3244 13.0871C30.7352 12.4979 30.146 12.136 29.4487 11.8658C28.7734 11.6037 28.0032 11.4251 26.8755 11.3735C25.7456 11.3222 25.3859 11.3096 22.5082 11.3096H22.5115ZM21.5612 13.2185C21.8433 13.218 22.158 13.2185 22.5115 13.2185C25.3398 13.2185 25.675 13.2286 26.7918 13.2794C27.8246 13.3266 28.3852 13.4992 28.7586 13.6442C29.2529 13.8361 29.6053 14.0656 29.9758 14.4365C30.3466 14.8072 30.576 15.1603 30.7685 15.6546C30.9135 16.0275 31.0863 16.5881 31.1333 17.6208C31.184 18.7375 31.1951 19.0729 31.1951 21.8998C31.1951 24.7267 31.184 25.0622 31.1333 26.1788C31.0861 27.2115 30.9135 27.7721 30.7685 28.1451C30.5766 28.6394 30.3466 28.9914 29.9758 29.3619C29.6051 29.7327 29.2531 29.9621 28.7586 30.1542C28.3856 30.2998 27.8246 30.4719 26.7918 30.5192C25.6752 30.5699 25.3398 30.5809 22.5115 30.5809C19.6831 30.5809 19.3478 30.5699 18.2312 30.5192C17.1985 30.4715 16.6379 30.299 16.2642 30.1539C15.77 29.9619 15.4168 29.7325 15.0461 29.3617C14.6753 28.991 14.4459 28.6388 14.2534 28.1442C14.1084 27.7713 13.9356 27.2107 13.8886 26.1779C13.8379 25.0613 13.8277 24.7259 13.8277 21.8972C13.8277 19.0685 13.8379 18.7348 13.8886 17.6182C13.9359 16.5854 14.1084 16.0248 14.2534 15.6515C14.4455 15.1571 14.6753 14.8041 15.0462 14.4333C15.4169 14.0626 15.77 13.833 16.2643 13.6407C16.6377 13.495 17.1985 13.3229 18.2312 13.2754C19.2084 13.2313 19.5871 13.218 21.5612 13.2158V13.2185ZM28.1658 14.9772C27.464 14.9772 26.8947 15.5461 26.8947 16.2479C26.8947 16.9497 27.464 17.519 28.1658 17.519C28.8675 17.519 29.4369 16.9497 29.4369 16.2479C29.4369 15.5462 28.8675 14.9768 28.1658 14.9768V14.9772ZM22.5115 16.4624C19.5074 16.4624 17.0718 18.8981 17.0718 21.9022C17.0718 24.9064 19.5074 27.3409 22.5115 27.3409C25.5156 27.3409 27.9504 24.9064 27.9504 21.9022C27.9504 18.8982 25.5154 16.4624 22.5113 16.4624H22.5115ZM22.5115 18.3713C24.4615 18.3713 26.0424 19.952 26.0424 21.9022C26.0424 23.8522 24.4615 25.4332 22.5115 25.4332C20.5614 25.4332 18.9807 23.8522 18.9807 21.9022C18.9807 19.952 20.5614 18.3713 22.5115 18.3713Z" fill="white"/>
</g>
<circle cx="22.5106" cy="21.9022" r="21.4022" stroke="#269CDD"/>
<defs>
<radialGradient id="paint0_radial_311_429" cx="0" cy="0" r="1" gradientUnits="userSpaceOnUse" gradientTransform="translate(16.1551 37.5492) rotate(-90) scale(26.8749 24.9958)">
<stop stop-color="#FFDD55"/>
<stop offset="0.1" stop-color="#FFDD55"/>
<stop offset="0.5" stop-color="#FF543E"/>
<stop offset="1" stop-color="#C837AB"/>
</radialGradient>
<radialGradient id="paint1_radial_311_429" cx="0" cy="0" r="1" gradientUnits="userSpaceOnUse" gradientTransform="translate(4.40995 10.2971) rotate(78.681) scale(12.0132 49.5189)">
<stop stop-color="#3771C8"/>
<stop offset="0.128" stop-color="#3771C8"/>
<stop offset="1" stop-color="#6600FF" stop-opacity="0"/>
</radialGradient>
<clipPath id="clip0_311_429">
<rect width="27.117" height="27.117" fill="white" transform="translate(8.95215 8.34375)"/>
</clipPath>
</defs>
</svg>
