<svg width="63" height="63" viewBox="0 0 63 63" fill="none" xmlns="http://www.w3.org/2000/svg">
<g clip-path="url(#clip0_127_425)">
<path d="M45 6.75H18C15.5147 6.75 13.5 8.76472 13.5 11.25V33.75C13.5 36.2353 15.5147 38.25 18 38.25H45C47.4853 38.25 49.5 36.2353 49.5 33.75V11.25C49.5 8.76472 47.4853 6.75 45 6.75Z" stroke="#269CDD" stroke-width="5" stroke-linecap="round" stroke-linejoin="round"/>
<path d="M13.5 20.25H6.75C5.55653 20.25 4.41193 20.7241 3.56802 21.568C2.72411 22.4119 2.25 23.5565 2.25 24.75V45C2.25 46.1935 2.72411 47.3381 3.56802 48.182C4.41193 49.0259 5.55653 49.5 6.75 49.5H56.25C57.4435 49.5 58.5881 49.0259 59.432 48.182C60.2759 47.3381 60.75 46.1935 60.75 45V24.75C60.75 23.5565 60.2759 22.4119 59.432 21.568C58.5881 20.7241 57.4435 20.25 56.25 20.25H49.5M18 49.5L15.75 60.75M45 49.5L47.25 60.75" stroke="#269CDD" stroke-width="5" stroke-linecap="round" stroke-linejoin="round"/>
</g>
<defs>
<clipPath id="clip0_127_425">
<rect width="63" height="63" fill="white"/>
</clipPath>
</defs>
</svg>
