<svg width="26" height="29" viewBox="0 0 26 29" fill="none" xmlns="http://www.w3.org/2000/svg">
<g filter="url(#filter0_d_311_453)">
<path d="M9.4649 11.2931C10.5979 10.1601 12.5739 10.1601 13.7069 11.2931L14.4139 12.0001L15.8279 10.5861L15.1209 9.87906C14.1779 8.93506 12.9219 8.41406 11.5859 8.41406C10.2499 8.41406 8.9939 8.93506 8.0509 9.87906L5.9289 12.0001C4.9932 12.9388 4.46777 14.2101 4.46777 15.5356C4.46777 16.861 4.9932 18.1323 5.9289 19.0711C6.39277 19.5356 6.94387 19.9039 7.55052 20.1548C8.15717 20.4057 8.80742 20.5342 9.4639 20.5331C10.1206 20.5344 10.771 20.406 11.3779 20.1551C11.9847 19.9042 12.5359 19.5358 12.9999 19.0711L13.7069 18.3641L12.2929 16.9501L11.5859 17.6571C11.0224 18.2181 10.2596 18.533 9.4644 18.533C8.66923 18.533 7.90643 18.2181 7.3429 17.6571C6.7814 17.0938 6.46611 16.3309 6.46611 15.5356C6.46611 14.7402 6.7814 13.9773 7.3429 13.4141L9.4649 11.2931Z" fill="#2E3A59"/>
<path d="M12.9999 4.92899L12.2929 5.63599L13.7069 7.04999L14.4139 6.34299C14.9774 5.78198 15.7402 5.46702 16.5354 5.46702C17.3305 5.46702 18.0933 5.78198 18.6569 6.34299C19.2184 6.90626 19.5337 7.66916 19.5337 8.46449C19.5337 9.25983 19.2184 10.0227 18.6569 10.586L16.5349 12.707C15.4019 13.84 13.4259 13.84 12.2929 12.707L11.5859 12L10.1719 13.414L10.8789 14.121C11.8219 15.065 13.0779 15.586 14.4139 15.586C15.7499 15.586 17.0059 15.065 17.9489 14.121L20.0709 12C21.0066 11.0613 21.532 9.78991 21.532 8.46449C21.532 7.13908 21.0066 5.86771 20.0709 4.92899C19.1324 3.9928 17.861 3.46704 16.5354 3.46704C15.2098 3.46704 13.9383 3.9928 12.9999 4.92899Z" fill="#2E3A59"/>
</g>
<defs>
<filter id="filter0_d_311_453" x="-3" y="0" width="32" height="32" filterUnits="userSpaceOnUse" color-interpolation-filters="sRGB">
<feFlood flood-opacity="0" result="BackgroundImageFix"/>
<feColorMatrix in="SourceAlpha" type="matrix" values="0 0 0 0 0 0 0 0 0 0 0 0 0 0 0 0 0 0 127 0" result="hardAlpha"/>
<feOffset dy="4"/>
<feGaussianBlur stdDeviation="2"/>
<feComposite in2="hardAlpha" operator="out"/>
<feColorMatrix type="matrix" values="0 0 0 0 0 0 0 0 0 0 0 0 0 0 0 0 0 0 0.25 0"/>
<feBlend mode="normal" in2="BackgroundImageFix" result="effect1_dropShadow_311_453"/>
<feBlend mode="normal" in="SourceGraphic" in2="effect1_dropShadow_311_453" result="shape"/>
</filter>
</defs>
</svg>
