<svg width="87" height="87" viewBox="0 0 87 87" fill="none" xmlns="http://www.w3.org/2000/svg">
<path d="M55.8839 35.7991L39.5714 24.9241C39.1619 24.6509 38.6858 24.494 38.1941 24.4702C37.7023 24.4463 37.2133 24.5565 36.7793 24.7889C36.3453 25.0212 35.9825 25.3671 35.7296 25.7896C35.4768 26.212 35.3434 26.6952 35.3438 27.1875V48.9375C35.3434 49.4298 35.4768 49.913 35.7296 50.3354C35.9825 50.7579 36.3453 51.1038 36.7793 51.3361C37.2133 51.5685 37.7023 51.6787 38.1941 51.6548C38.6858 51.631 39.1619 51.4741 39.5714 51.2009L55.8839 40.3259C56.2568 40.0777 56.5626 39.7412 56.7742 39.3463C56.9857 38.9515 57.0964 38.5105 57.0964 38.0625C57.0964 37.6145 56.9857 37.1735 56.7742 36.7787C56.5626 36.3838 56.2568 36.0473 55.8839 35.7991ZM40.7812 43.8568V32.2852L49.4745 38.0625L40.7812 43.8568ZM73.4062 13.5938H13.5938C12.1516 13.5938 10.7686 14.1666 9.74886 15.1864C8.72913 16.2061 8.15625 17.5891 8.15625 19.0312V57.0938C8.15625 58.5359 8.72913 59.9189 9.74886 60.9386C10.7686 61.9584 12.1516 62.5312 13.5938 62.5312H73.4062C74.8484 62.5312 76.2314 61.9584 77.2511 60.9386C78.2709 59.9189 78.8438 58.5359 78.8438 57.0938V19.0312C78.8438 17.5891 78.2709 16.2061 77.2511 15.1864C76.2314 14.1666 74.8484 13.5938 73.4062 13.5938ZM73.4062 57.0938H13.5938V19.0312H73.4062V57.0938ZM78.8438 70.6875C78.8438 71.4086 78.5573 72.1001 78.0474 72.6099C77.5376 73.1198 76.8461 73.4062 76.125 73.4062H10.875C10.1539 73.4062 9.46242 73.1198 8.95255 72.6099C8.44269 72.1001 8.15625 71.4086 8.15625 70.6875C8.15625 69.9664 8.44269 69.2749 8.95255 68.7651C9.46242 68.2552 10.1539 67.9688 10.875 67.9688H76.125C76.8461 67.9688 77.5376 68.2552 78.0474 68.7651C78.5573 69.2749 78.8438 69.9664 78.8438 70.6875Z" fill="#269CDD"/>
</svg>
