<svg width="150" height="150" viewBox="0 0 150 150" fill="none" xmlns="http://www.w3.org/2000/svg">
<circle cx="75" cy="75" r="73.5" fill="#00538F" stroke="#269CDD" stroke-width="3"/>
<path d="M76.317 77.7865C78.5981 77.7865 80.4474 75.9372 80.4474 73.6561C80.4474 71.3749 78.5981 69.5256 76.317 69.5256C74.0358 69.5256 72.1865 71.3749 72.1865 73.6561C72.1865 75.9372 74.0358 77.7865 76.317 77.7865Z" fill="white"/>
<path d="M92.8384 77.7865C95.1196 77.7865 96.9689 75.9372 96.9689 73.6561C96.9689 71.3749 95.1196 69.5256 92.8384 69.5256C90.5573 69.5256 88.708 71.3749 88.708 73.6561C88.708 75.9372 90.5573 77.7865 92.8384 77.7865Z" fill="white"/>
<path d="M59.795 77.7865C62.0762 77.7865 63.9254 75.9372 63.9254 73.6561C63.9254 71.3749 62.0762 69.5256 59.795 69.5256C57.5138 69.5256 55.6646 71.3749 55.6646 73.6561C55.6646 75.9372 57.5138 77.7865 59.795 77.7865Z" fill="white"/>
<path d="M105.519 44.454C98.7418 37.6326 89.797 33.3895 80.2267 32.4561C70.6564 31.5227 61.0604 33.9577 53.0929 39.3411C45.1254 44.7245 39.2859 52.719 36.581 61.9464C33.8761 71.1739 34.4753 81.0559 38.2754 89.8888C38.6715 90.7098 38.8015 91.6339 38.6472 92.5323L35.0124 110.004C34.8724 110.674 34.901 111.368 35.0956 112.024C35.2903 112.68 35.6449 113.278 36.1276 113.763C36.5233 114.156 36.9945 114.464 37.5127 114.67C38.0309 114.876 38.5854 114.975 39.1428 114.961H39.9689L57.6472 111.408C58.5457 111.3 59.4568 111.428 60.2907 111.78C69.1236 115.58 79.0056 116.179 88.233 113.475C97.4604 110.77 105.455 104.93 110.838 96.9626C116.222 88.9952 118.657 79.3991 117.723 69.8288C116.79 60.2586 112.547 51.3138 105.725 44.5366L105.519 44.454ZM108.947 78.9844C108.14 83.9161 106.224 88.6004 103.344 92.6847C100.465 96.769 96.6965 100.147 92.3228 102.565C87.9491 104.982 83.084 106.376 78.0938 106.641C73.1035 106.907 68.1179 106.037 63.5124 104.097C61.879 103.403 60.1243 103.038 58.3494 103.024C57.574 103.029 56.8004 103.098 56.0363 103.23L44.3885 105.584L46.7428 93.9366C47.2117 91.4141 46.9095 88.8087 45.8754 86.4605C43.9358 81.855 43.0659 76.8695 43.3315 71.8792C43.597 66.8889 44.991 62.0238 47.4084 57.6501C49.8259 53.2764 53.2039 49.508 57.2882 46.6285C61.3726 43.7489 66.0568 41.8333 70.9885 41.0257C76.1651 40.1762 81.4695 40.5713 86.4631 42.1784C91.4566 43.7855 95.9958 46.5584 99.7052 50.2677C103.415 53.9771 106.187 58.5163 107.795 63.5099C109.402 68.5034 109.797 73.8079 108.947 78.9844Z" fill="white"/>
</svg>
