<svg width="24" height="24" viewBox="0 0 24 24" fill="none" xmlns="http://www.w3.org/2000/svg">
<circle cx="12" cy="12" r="11.5" fill="white" stroke="#269CDD"/>
<path d="M17.5999 11.5922L12.9845 6.97678C12.9038 6.89612 12.801 6.84119 12.6891 6.81894C12.5772 6.79669 12.4613 6.80811 12.3559 6.85177C12.2505 6.89543 12.1604 6.96935 12.097 7.0642C12.0336 7.15906 11.9997 7.27057 11.9997 7.38466V9.42985C10.4237 9.5757 8.95887 10.3044 7.89183 11.4733C6.82479 12.6423 6.23236 14.1673 6.23047 15.75V16.6154C6.23056 16.7352 6.26792 16.8519 6.33736 16.9495C6.4068 17.0471 6.50488 17.1206 6.618 17.1599C6.73112 17.1993 6.85368 17.2024 6.96866 17.1689C7.08364 17.1354 7.18536 17.067 7.2597 16.9731C7.82491 16.301 8.5184 15.7482 9.29967 15.3471C10.0809 14.9461 10.9343 14.7047 11.8099 14.6372C11.8387 14.6337 11.9109 14.6279 11.9997 14.6222V16.6154C11.9997 16.7295 12.0336 16.841 12.097 16.9359C12.1604 17.0307 12.2505 17.1047 12.3559 17.1483C12.4613 17.192 12.5772 17.2034 12.6891 17.1812C12.801 17.1589 12.9038 17.104 12.9845 17.0233L17.5999 12.4079C17.708 12.2997 17.7688 12.153 17.7688 12C17.7688 11.8471 17.708 11.7004 17.5999 11.5922ZM13.1535 15.2227V14.0193C13.1535 13.8663 13.0928 13.7195 12.9846 13.6113C12.8764 13.5031 12.7296 13.4424 12.5766 13.4424C12.4295 13.4424 11.8289 13.4712 11.6755 13.4914C10.1206 13.6347 8.64052 14.2254 7.41431 15.1922C7.55349 13.9197 8.15713 12.7433 9.10963 11.8882C10.0621 11.0331 11.2966 10.5594 12.5766 10.5577C12.7296 10.5577 12.8764 10.497 12.9846 10.3888C13.0928 10.2806 13.1535 10.1338 13.1535 9.98082V8.77735L16.3762 12L13.1535 15.2227Z" fill="#269CDD"/>
</svg>
