<svg width="24" height="24" viewBox="0 0 24 24" fill="none" xmlns="http://www.w3.org/2000/svg">
<circle cx="12" cy="12" r="12" fill="white"/>
<path d="M17.8242 11.5758L13.0242 6.77577C12.9403 6.69188 12.8334 6.63476 12.717 6.61162C12.6006 6.58848 12.48 6.60036 12.3704 6.64576C12.2608 6.69117 12.1671 6.76805 12.1012 6.86669C12.0352 6.96534 12 7.08132 12 7.19997V9.32697C10.361 9.47865 8.83754 10.2365 7.72781 11.4522C6.61809 12.6679 6.00196 14.2539 6 15.9V16.8C6.00009 16.9245 6.03895 17.0459 6.11116 17.1474C6.18338 17.2489 6.28539 17.3254 6.40304 17.3663C6.52068 17.4071 6.64813 17.4104 6.76772 17.3756C6.8873 17.3408 6.99309 17.2696 7.0704 17.172C7.65822 16.4729 8.37945 15.8981 9.19197 15.4809C10.0045 15.0638 10.892 14.8128 11.8026 14.7426C11.8326 14.739 11.9076 14.733 12 14.727V16.8C12 16.9186 12.0352 17.0346 12.1012 17.1332C12.1671 17.2319 12.2608 17.3088 12.3704 17.3542C12.48 17.3996 12.6006 17.4115 12.717 17.3883C12.8334 17.3652 12.9403 17.3081 13.0242 17.2242L17.8242 12.4242C17.9367 12.3117 17.9999 12.1591 17.9999 12C17.9999 11.8409 17.9367 11.6883 17.8242 11.5758ZM13.2 15.3516V14.1C13.2 13.9408 13.1368 13.7882 13.0243 13.6757C12.9117 13.5632 12.7591 13.5 12.6 13.5C12.447 13.5 11.8224 13.53 11.6628 13.551C10.0457 13.7 8.50645 14.3143 7.2312 15.3198C7.37595 13.9964 8.00372 12.773 8.99433 11.8837C9.98494 10.9944 11.2688 10.5017 12.6 10.5C12.7591 10.5 12.9117 10.4368 13.0243 10.3242C13.1368 10.2117 13.2 10.0591 13.2 9.89997V8.64837L16.5516 12L13.2 15.3516Z" fill="#269CDD"/>
</svg>
