<svg width="45" height="44" viewBox="0 0 45 44" fill="none" xmlns="http://www.w3.org/2000/svg">
<g clip-path="url(#clip0_311_423)">
<path d="M6.06566 21.6943C6.06484 24.6153 6.83403 27.4674 8.29661 29.9813L5.92578 38.5705L14.7844 36.2657C17.2346 37.5892 19.9799 38.2827 22.7696 38.2829H22.7769C31.9863 38.2829 39.483 30.847 39.4869 21.7074C39.4887 17.2786 37.7521 13.114 34.5969 9.98084C31.4422 6.84792 27.2466 5.12165 22.7762 5.11963C13.5657 5.11963 6.0696 12.5551 6.06579 21.6943" fill="url(#paint0_linear_311_423)"/>
<path d="M5.46953 21.6888C5.46858 24.7148 6.26533 27.6689 7.78006 30.2728L5.32422 39.1699L14.5005 36.7826C17.0289 38.1504 19.8755 38.8716 22.7722 38.8727H22.7797C32.3195 38.8727 40.0855 31.1693 40.0895 21.7025C40.0912 17.1146 38.2921 12.8003 35.0241 9.55484C31.7558 6.30981 27.4101 4.52142 22.7797 4.51953C13.2382 4.51953 5.47333 12.2218 5.46953 21.6888ZM10.9342 29.8244L10.5916 29.2847C9.15126 27.0123 8.39104 24.3863 8.39212 21.6898C8.39525 13.8211 14.8491 7.41934 22.7851 7.41934C26.6283 7.42095 30.2401 8.90751 32.9567 11.6047C35.6731 14.3021 37.1679 17.8877 37.167 21.7014C37.1634 29.5701 30.7094 35.9727 22.7797 35.9727H22.774C20.192 35.9714 17.6597 35.2833 15.4513 33.9831L14.9257 33.6739L9.48031 35.0905L10.9342 29.8242V29.8244Z" fill="url(#paint1_linear_311_423)"/>
<path d="M18.4536 14.511C18.1296 13.7965 17.7886 13.782 17.4805 13.7695C17.2281 13.7587 16.9397 13.7595 16.6515 13.7595C16.3631 13.7595 15.8944 13.8672 15.4983 14.2964C15.1018 14.726 13.9844 15.7641 13.9844 17.8755C13.9844 19.987 15.5343 22.0275 15.7503 22.3141C15.9667 22.6002 18.7425 27.0717 23.1387 28.7919C26.7923 30.2215 27.5358 29.9371 28.3287 29.8654C29.1218 29.794 30.8878 28.8276 31.2481 27.8255C31.6086 26.8235 31.6086 25.9646 31.5005 25.7851C31.3924 25.6063 31.104 25.4989 30.6715 25.2844C30.2388 25.0697 28.1124 24.0315 27.716 23.8882C27.3195 23.7451 27.0311 23.6737 26.7427 24.1034C26.4543 24.5325 25.626 25.4989 25.3736 25.7851C25.1214 26.072 24.8689 26.1077 24.4365 25.893C24.0037 25.6777 22.6108 25.2251 20.9582 23.7632C19.6724 22.6256 18.8044 21.2209 18.5521 20.7912C18.2998 20.3621 18.5251 20.1295 18.7419 19.9157C18.9363 19.7234 19.1746 19.4146 19.3911 19.1641C19.6067 18.9134 19.6787 18.7346 19.8229 18.4484C19.9673 18.1619 19.895 17.9113 19.7871 17.6966C19.6787 17.482 18.8382 15.3595 18.4536 14.511Z" fill="white"/>
</g>
<circle cx="22.7068" cy="21.9022" r="21.4022" stroke="#269CDD"/>
<defs>
<linearGradient id="paint0_linear_311_423" x1="1683.98" y1="3350.2" x2="1683.98" y2="5.11963" gradientUnits="userSpaceOnUse">
<stop stop-color="#1FAF38"/>
<stop offset="1" stop-color="#60D669"/>
</linearGradient>
<linearGradient id="paint1_linear_311_423" x1="1743.59" y1="3469.56" x2="1743.59" y2="4.51953" gradientUnits="userSpaceOnUse">
<stop stop-color="#F9F9F9"/>
<stop offset="1" stop-color="white"/>
</linearGradient>
<clipPath id="clip0_311_423">
<rect width="34.7653" height="34.7653" fill="white" transform="translate(5.32422 4.51953)"/>
</clipPath>
</defs>
</svg>
